<svg xmlns="http://www.w3.org/2000/svg" xmlns:xlink="http://www.w3.org/1999/xlink" id="Capa_1" x="0px" y="0px" width="400px" height="300px" viewBox="0 0 400 300" xml:space="preserve"><g>	<g>		<path fill="#908E93" d="M136.63,237.915h-7.119v-1.359c0-0.218-0.163-0.391-0.38-0.391h-17.001c-0.219,0-0.378,0.173-0.378,0.391   v4.345c0,0.222,0.159,0.324,0.378,0.324h17.001c4.176,0,7.5,3.364,7.5,7.494v4.349c0,4.129-3.323,7.495-7.5,7.495h-17.001   c-4.127,0-7.496-3.366-7.496-7.495v-1.354h7.117v1.354c0,0.222,0.159,0.374,0.378,0.374h17.001c0.217,0,0.38-0.152,0.38-0.374   v-4.349c0-0.218-0.163-0.324-0.38-0.324h-17.001c-4.127,0-7.496-3.37-7.496-7.494v-4.345c0-4.13,3.369-7.5,7.496-7.5h17.001   c4.176,0,7.5,3.37,7.5,7.5V237.915z"></path>		<path fill="#908E93" d="M195.236,226.229v2.826h12.28v7.109h-12.28v24.397h-7.118v-34.333c0-4.125,3.319-7.497,7.501-7.497h11.896   v7.172h-11.896C195.403,225.904,195.236,226.017,195.236,226.229"></path>		<path fill="#908E93" d="M223.048,225.904h-7.112v-7.172h7.112V225.904z M215.936,229.056h7.112v31.507h-7.112V229.056z"></path>		<path fill="#908E93" d="M257.703,229.056v7.109h-17.489c-0.22,0-0.382,0.173-0.382,0.391v24.007h-7.117v-24.007   c0-4.13,3.368-7.5,7.499-7.5H257.703z"></path>		<path fill="#908E93" d="M297.469,248.395v-11.839c0-4.13-3.371-7.5-7.502-7.5H272.97c-4.126,0-7.495,3.37-7.495,7.5v16.512   c0,4.129,3.369,7.495,7.495,7.495h24.499v-7.121H272.97c-0.221,0-0.382-0.152-0.382-0.374v-16.512   c0-0.218,0.161-0.391,0.382-0.391h16.997c0.22,0,0.384,0.173,0.384,0.391v4.669h-14.322v7.17H297.469z"></path>		<path fill="#908E93" d="M178.235,236.556v24.007h-24.5c-4.127,0-7.496-3.366-7.496-7.495v-11.843h24.879v-4.669   c0-0.218-0.164-0.391-0.38-0.391H146.24v-7.109h24.499C174.866,229.056,178.235,232.426,178.235,236.556 M171.119,248.395h-17.762   v4.673c0,0.222,0.161,0.374,0.378,0.374h17.384V248.395z"></path>	</g>	<g>		<g>			<defs>				<path id="SVGID_1_" d="M207.059,149.857l8.456-4.898c2.915-1.675,2.915-4.437,0-6.116l-57.94-33.416     c-2.911-1.683-5.312-5.698-5.314-8.926c-0.014-3.217,2.359-7.227,5.289-8.903l38.807-22.264     c2.922-1.675,7.702-1.687,10.638-0.034l61.649,34.798V88.182c-0.008-4.171-2.972-9.284-6.574-11.373l-53.648-30.938     c-3.616-2.085-9.518-2.083-13.134,0.001l-53.624,30.993c-3.612,2.083-6.56,7.199-6.56,11.37l0.003,25.883l61.369,35.718     C201.937,152.544,204.399,151.189,207.059,149.857z M268.65,123.358l-61.579-34.757c-2.931-1.658-7.722-1.636-10.638,0.035     l-8.442,4.848c-2.919,1.669-2.925,4.418-0.012,6.098l58.375,33.67c2.92,1.681,5.294,5.563,5.294,8.63     c0,3.077-2.374,6.979-5.294,8.665l-39.335,22.728c-2.913,1.674-7.684,1.674-10.586-0.022l-61.306-35.693l0.003,12.611     c0,4.166,2.958,9.289,6.566,11.368l53.647,30.945c3.61,2.08,9.528,2.08,13.127-0.009l53.637-30.983     c3.604-2.099,6.564-7.216,6.553-11.375L268.65,123.358z"></path>			</defs>			<clipPath id="SVGID_2_">				<use xlink:href="#SVGID_1_"></use>			</clipPath>			<g clip-path="url(#SVGID_2_)">				<rect x="116.768" y="41.503" fill="#D22327" width="182.376" height="171.708"></rect>			</g>							<linearGradient id="SVGID_3_" gradientUnits="userSpaceOnUse" x1="1465.5303" y1="-1233.1528" x2="1428.2064" y2="-1235.1346" gradientTransform="matrix(-1.2731 -0.735 0.721 -1.2488 2857.231 -296.0653)">				<stop offset="0" style="stop-color:#FFFFFF;stop-opacity:0"></stop>				<stop offset="0.5216" style="stop-color:#0B1513;stop-opacity:0.5"></stop>				<stop offset="1" style="stop-color:#11100F"></stop>			</linearGradient>			<polygon clip-path="url(#SVGID_2_)" fill="url(#SVGID_3_)" points="98.341,154.459 188.75,206.656 177.912,225.427     87.505,173.229    "></polygon>			<g opacity="0.5" clip-path="url(#SVGID_2_)">				<linearGradient id="SVGID_4_" gradientUnits="userSpaceOnUse" x1="235.9082" y1="81.3486" x2="203.3281" y2="61.5926">					<stop offset="0" style="stop-color:#FFFFFF;stop-opacity:0"></stop>					<stop offset="0.7025" style="stop-color:#0B1513;stop-opacity:0.5"></stop>					<stop offset="1" style="stop-color:#11100F"></stop>				</linearGradient>				<path opacity="0.75" fill="url(#SVGID_4_)" d="M230.686,65.925c-10.169-5.874-17.748-10.791-39.938,2.772l70.239,38.499     l11.273-18.537C256.928,79.562,243.043,73.062,230.686,65.925z"></path>									<linearGradient id="SVGID_5_" gradientUnits="userSpaceOnUse" x1="1203.4033" y1="-1690.5381" x2="1170.822" y2="-1710.2948" gradientTransform="matrix(-0.9998 -0.0223 0.0223 -0.9998 1406.0314 -1503.489)">					<stop offset="0" style="stop-color:#FFFFFF;stop-opacity:0"></stop>					<stop offset="0.7025" style="stop-color:#0B1513;stop-opacity:0.5"></stop>					<stop offset="1" style="stop-color:#11100F"></stop>				</linearGradient>				<path opacity="0.75" fill="url(#SVGID_5_)" d="M171.882,172.475c9.779,6.504,17.698,10.95,40.183-2.116l-69.557-39.82     l-14.578,25.007C143.055,164.983,152.456,159.552,171.882,172.475z"></path>				<linearGradient id="SVGID_6_" gradientUnits="userSpaceOnUse" x1="225.8232" y1="130.2241" x2="199.1931" y2="70.4119">					<stop offset="0" style="stop-color:#FFFFFF;stop-opacity:0"></stop>					<stop offset="1" style="stop-color:#FFFFFF"></stop>				</linearGradient>				<polygon opacity="0.49" fill="url(#SVGID_6_)" points="164.804,85.724 192.903,74.396 260.214,114.913 205.997,130.185     "></polygon>									<linearGradient id="SVGID_7_" gradientUnits="userSpaceOnUse" x1="2749.1348" y1="-1650.377" x2="2722.5051" y2="-1710.1884" gradientTransform="matrix(-1 0 0 -1 2927.9395 -1542.8887)">					<stop offset="0.3578" style="stop-color:#FFFFFF;stop-opacity:0"></stop>					<stop offset="1" style="stop-color:#FFFFFF"></stop>				</linearGradient>				<polygon opacity="0.49" fill="url(#SVGID_7_)" points="239.824,151.989 211.725,163.317 144.414,122.802 179.704,107.988          "></polygon>			</g>		</g>	</g></g></svg>